<?xml version="1.0" standalone="no"?>
<!DOCTYPE svg PUBLIC "-//W3C//DTD SVG 20010904//EN"
 "http://www.w3.org/TR/2001/REC-SVG-20010904/DTD/svg10.dtd">
<svg version="1.0" xmlns="http://www.w3.org/2000/svg"
 width="512.000000pt" height="512.000000pt" viewBox="0 0 512.000000 512.000000"
 preserveAspectRatio="xMidYMid meet">

<g transform="translate(0.000000,512.000000) scale(0.100000,-0.100000)"
fill="currentColor" stroke="none">
<path d="M2384 5086 l-34 -34 0 -206 c0 -113 -2 -206 -5 -206 -2 0 -107 59
-231 130 -125 72 -236 131 -248 131 -69 4 -86 -11 -166 -147 -64 -110 -75
-158 -45 -201 8 -11 162 -105 342 -208 181 -104 334 -193 341 -200 9 -8 12
-61 10 -219 l-3 -209 -105 79 c-479 357 -490 364 -534 364 -48 0 -91 -31 -101
-73 -4 -13 11 -188 32 -388 22 -200 36 -365 33 -367 -3 -1 -108 55 -233 125
l-226 128 -1 398 c0 446 -1 456 -64 482 -50 21 -266 21 -306 0 -53 -27 -55
-38 -60 -341 l-5 -280 -265 148 c-167 94 -275 148 -293 148 -56 0 -80 -24
-150 -146 -37 -65 -67 -128 -67 -141 0 -63 5 -67 387 -287 84 -48 151 -92 148
-96 -3 -4 -99 -63 -215 -130 -115 -66 -219 -133 -230 -147 -11 -14 -20 -40
-20 -57 0 -39 115 -241 153 -270 52 -39 75 -29 420 170 177 103 327 187 332
187 10 0 463 -258 478 -272 4 -4 -140 -72 -320 -151 -203 -90 -338 -155 -355
-171 -39 -38 -39 -100 0 -138 16 -16 154 -83 349 -171 178 -79 322 -144 320
-146 -26 -23 -475 -273 -484 -270 -8 3 -150 84 -316 180 -166 96 -314 180
-329 186 -35 16 -90 5 -115 -23 -11 -12 -46 -67 -77 -122 -62 -110 -70 -154
-37 -197 11 -13 117 -80 236 -148 178 -102 213 -126 201 -136 -9 -6 -123 -73
-254 -148 -243 -140 -272 -163 -272 -217 0 -30 114 -237 146 -267 50 -45 77
-36 364 128 144 83 264 150 266 150 2 0 4 -130 6 -290 l3 -290 33 -32 c32 -33
32 -33 150 -36 138 -5 194 7 220 45 15 24 18 69 22 441 l5 414 230 133 c126
74 231 133 232 132 1 -1 -16 -164 -37 -362 -22 -198 -40 -373 -40 -388 0 -42
57 -97 101 -97 43 0 44 1 364 239 149 110 273 201 278 201 4 0 6 -97 5 -216
l-3 -217 -340 -191 c-311 -175 -342 -195 -359 -229 -17 -35 -17 -42 -3 -77 8
-21 40 -81 72 -135 46 -78 63 -100 92 -112 20 -8 46 -12 59 -9 13 4 124 64
246 134 123 70 226 129 230 130 5 2 8 -89 8 -203 l0 -207 34 -34 34 -34 136 0
c150 0 183 9 204 55 8 17 12 92 12 227 0 184 1 200 17 194 9 -4 110 -60 223
-126 230 -133 252 -143 290 -135 37 8 59 34 126 150 69 118 77 167 34 209 -14
14 -175 111 -357 216 l-333 192 0 209 c0 115 3 209 6 209 4 0 133 -94 288
-209 154 -114 291 -213 303 -220 12 -6 36 -11 53 -11 45 0 100 56 100 102 1
18 -16 191 -37 385 -20 194 -35 355 -32 358 3 3 118 -59 255 -138 l249 -143 5
-407 5 -407 28 -27 c27 -27 31 -28 158 -31 137 -4 172 3 206 40 16 18 18 48
23 304 l5 283 245 -142 c270 -156 295 -164 345 -117 35 33 145 229 145 258 0
54 -29 78 -264 213 -127 73 -237 137 -244 142 -9 7 49 45 205 134 120 69 230
138 246 154 44 48 38 83 -40 215 -72 123 -107 153 -161 139 -15 -4 -174 -92
-354 -196 -180 -104 -332 -189 -338 -189 -12 0 -503 281 -498 285 2 2 147 67
323 145 176 79 330 152 342 163 44 40 39 128 -11 160 -11 8 -166 78 -343 157
-178 78 -321 146 -318 150 2 4 117 71 255 150 l250 142 322 -188 c178 -103
338 -193 356 -199 72 -25 101 -3 185 144 65 115 73 161 35 202 -13 13 -124 82
-247 153 -177 103 -220 132 -209 140 8 6 117 70 243 141 127 72 234 141 243
154 30 44 20 88 -41 196 -68 118 -104 155 -150 155 -23 0 -103 -41 -277 -140
l-245 -139 -5 279 -5 280 -28 27 c-27 28 -29 28 -177 31 l-151 3 -34 -34 -35
-35 0 -399 0 -400 -252 -145 c-204 -117 -254 -142 -256 -128 -2 9 13 167 32
349 20 183 36 348 36 368 0 49 -54 103 -103 103 -37 0 -46 -6 -447 -303 l-185
-138 -3 208 c-2 157 1 210 10 218 7 7 157 94 333 194 176 100 331 193 345 207
43 42 35 91 -34 209 -67 117 -88 142 -126 150 -38 8 -67 -5 -296 -138 -110
-64 -207 -119 -216 -122 -17 -7 -18 7 -18 194 0 283 2 281 -216 281 l-136 0
-34 -34z"/>
</g>
</svg>
