<?xml version="1.0" standalone="no"?>
<!DOCTYPE svg PUBLIC "-//W3C//DTD SVG 20010904//EN"
 "http://www.w3.org/TR/2001/REC-SVG-20010904/DTD/svg10.dtd">
<svg version="1.0" xmlns="http://www.w3.org/2000/svg"
 width="512.000000pt" height="512.000000pt" viewBox="0 0 512.000000 512.000000"
 preserveAspectRatio="xMidYMid meet">

<g transform="translate(0.000000,512.000000) scale(0.100000,-0.100000)"
fill="currentColor" stroke="none">
<path d="M2345 5109 c-858 -88 -1594 -701 -1831 -1523 -80 -276 -77 -233 -81
-1246 -3 -681 -1 -916 8 -950 17 -65 73 -167 121 -224 79 -92 127 -114 543
-253 l383 -127 4 -251 c4 -230 6 -255 27 -307 31 -79 97 -150 179 -190 l67
-33 795 0 795 0 67 33 c82 40 148 111 179 190 20 52 23 80 28 306 l6 249 376
126 c245 82 395 138 433 161 103 62 203 198 235 320 9 34 11 269 8 950 -3 873
-4 909 -25 1015 -85 444 -286 828 -593 1135 -458 457 -1090 685 -1724 619z
m-415 -2285 c176 -41 341 -173 418 -335 51 -108 66 -172 66 -284 0 -112 -15
-176 -66 -284 -33 -68 -56 -101 -122 -166 -128 -127 -265 -185 -437 -186 -118
-1 -188 15 -296 67 -151 73 -272 212 -324 374 -30 91 -36 244 -15 335 55 231
237 419 466 479 73 19 229 19 310 0z m1622 -16 c96 -36 171 -84 242 -154 72
-73 118 -145 154 -246 23 -64 26 -88 27 -198 0 -102 -4 -138 -22 -195 -53
-166 -173 -305 -326 -379 -108 -52 -178 -68 -296 -67 -172 1 -309 59 -437 186
-66 65 -89 98 -122 166 -51 108 -66 172 -66 284 0 112 15 176 66 284 76 159
239 292 413 335 95 24 282 16 367 -16z m-910 -1230 c131 -210 198 -358 198
-440 0 -70 -16 -118 -59 -174 -109 -144 -333 -144 -442 0 -86 114 -81 201 22
410 42 84 189 326 199 326 3 0 40 -55 82 -122z"/>
</g>
</svg>
