<?xml version="1.0" standalone="no"?>
<!DOCTYPE svg PUBLIC "-//W3C//DTD SVG 20010904//EN"
 "http://www.w3.org/TR/2001/REC-SVG-20010904/DTD/svg10.dtd">
<svg version="1.0" xmlns="http://www.w3.org/2000/svg"
 width="512.000000pt" height="512.000000pt" viewBox="0 0 512.000000 512.000000"
 preserveAspectRatio="xMidYMid meet">

<g transform="translate(0.000000,512.000000) scale(0.100000,-0.100000)"
fill="currentColor" stroke="none">
<path d="M2405 4676 c-443 -85 -794 -408 -904 -833 -12 -43 -26 -132 -31 -198
-18 -203 -28 -255 -67 -333 -83 -169 -260 -284 -600 -391 -153 -49 -222 -88
-279 -158 -65 -80 -88 -149 -88 -268 0 -81 5 -111 23 -158 32 -82 123 -177
210 -219 62 -31 73 -33 171 -33 58 0 164 4 236 9 193 13 332 -11 392 -67 32
-30 42 -56 102 -265 60 -213 104 -344 154 -465 192 -463 463 -737 822 -834 91
-24 115 -27 294 -27 208 -1 279 10 484 69 194 56 472 182 726 329 139 81 164
105 156 155 -10 64 -29 71 -195 71 -406 0 -684 128 -793 366 -19 40 -23 66
-23 144 1 88 3 101 36 170 90 189 252 331 414 361 75 14 325 6 490 -17 230
-31 338 -3 448 116 77 83 101 147 102 270 0 83 -4 103 -28 154 -59 128 -130
185 -298 239 -196 65 -384 176 -470 279 -100 121 -136 223 -150 426 -20 309
-101 520 -279 729 -141 166 -362 304 -575 359 -123 32 -365 42 -480 20z m-132
-972 c63 -21 130 -83 163 -150 24 -49 26 -63 22 -137 -6 -115 -50 -188 -145
-244 -61 -35 -168 -43 -244 -18 -70 24 -149 101 -172 169 -20 57 -22 142 -6
196 33 110 156 200 273 200 34 0 83 -7 109 -16z m873 -1 c32 -11 66 -34 100
-67 115 -116 115 -297 -1 -412 -66 -66 -128 -88 -230 -82 -107 7 -191 63 -241
161 -26 49 -30 163 -9 228 23 67 101 149 165 172 60 21 155 21 216 0z"/>
</g>
</svg>
