<?xml version="1.0" standalone="no"?>
<!DOCTYPE svg PUBLIC "-//W3C//DTD SVG 20010904//EN"
 "http://www.w3.org/TR/2001/REC-SVG-20010904/DTD/svg10.dtd">
<svg version="1.0" xmlns="http://www.w3.org/2000/svg"
 width="512.000000pt" height="512.000000pt" viewBox="0 0 512.000000 512.000000"
 preserveAspectRatio="xMidYMid meet">

<g transform="translate(0.000000,512.000000) scale(0.100000,-0.100000)"
fill="currentColor" stroke="none">
<path d="M2090 5101 c-40 -21 -58 -62 -60 -131 -2 -123 -55 -411 -107 -573
-115 -364 -219 -537 -708 -1177 -317 -414 -461 -797 -482 -1284 -29 -683 294
-1309 858 -1664 85 -54 271 -142 374 -176 567 -193 1232 -86 1705 274 294 224
521 544 633 895 118 368 113 783 -15 1154 -79 230 -255 526 -335 564 -25 11
-50 15 -73 11 -43 -7 -96 -46 -106 -76 -27 -88 -172 -252 -322 -366 -115 -86
-172 -97 -249 -47 -48 32 -54 69 -33 191 33 191 43 352 37 583 -6 226 -20 343
-64 526 -116 493 -390 915 -783 1211 -140 106 -198 124 -270 85z"/>
</g>
</svg>
