<?xml version="1.0" standalone="no"?>
<!DOCTYPE svg PUBLIC "-//W3C//DTD SVG 20010904//EN"
 "http://www.w3.org/TR/2001/REC-SVG-20010904/DTD/svg10.dtd">
<svg version="1.0" xmlns="http://www.w3.org/2000/svg"
 width="512.000000pt" height="512.000000pt" viewBox="0 0 512.000000 512.000000"
 preserveAspectRatio="xMidYMid meet">

<g transform="translate(0.000000,512.000000) scale(0.100000,-0.100000)"
fill="currentColor" stroke="none">
<path d="M1212 4848 l3 -273 205 -104 204 -104 -159 -79 c-88 -44 -162 -82
-165 -84 -6 -7 123 -264 132 -264 5 0 89 41 188 90 99 50 182 90 185 90 2 0 6
-100 7 -222 l3 -222 298 -148 297 -148 0 -180 0 -180 -185 0 -185 0 -121 183
c-67 100 -125 186 -129 190 -7 8 -250 -146 -250 -159 0 -2 32 -52 70 -109 l70
-105 -112 0 -113 0 -278 555 c-152 305 -282 555 -287 555 -9 0 -248 -116 -258
-125 -2 -2 49 -107 113 -235 64 -128 115 -233 113 -235 -2 -2 -104 -53 -228
-115 -124 -62 -227 -114 -230 -116 -6 -7 123 -264 132 -264 5 0 107 50 228
110 121 61 224 110 230 110 5 0 50 -80 99 -178 l90 -179 -92 -91 -92 -92 -268
0 -267 0 0 -150 0 -150 255 0 255 0 126 -252 c69 -139 128 -255 130 -258 6 -6
264 123 264 132 0 4 -55 118 -122 253 l-123 245 90 90 90 90 418 0 418 0 -4
-707 c-3 -570 -7 -722 -19 -781 -8 -39 -12 -72 -9 -72 3 0 42 7 86 16 108 23
378 23 495 1 46 -9 85 -15 86 -14 1 1 -5 36 -14 77 -12 62 -16 197 -19 767 -2
381 -2 693 2 693 3 0 104 -50 225 -110 l220 -110 0 -138 0 -137 168 -168 c92
-92 172 -167 177 -167 13 0 205 192 205 205 0 6 -56 66 -125 135 l-125 125 0
165 0 165 -200 100 c-110 55 -200 102 -200 105 0 3 65 38 145 78 l145 72 205
0 205 0 0 -225 0 -225 150 0 150 0 0 175 c0 96 2 175 5 175 3 0 86 -40 185
-90 99 -49 183 -90 188 -90 8 0 132 244 132 260 0 5 -91 55 -202 111 l-201
101 224 224 224 224 -108 107 -107 108 -278 -278 -277 -277 -143 0 c-78 0
-142 2 -142 5 0 3 40 85 89 183 l89 177 161 160 161 160 0 332 0 333 -150 0
-150 0 0 -268 0 -267 -126 -125 c-105 -105 -132 -138 -166 -205 -22 -44 -83
-163 -136 -264 l-95 -184 -44 86 c-24 48 -48 87 -53 87 -9 0 -248 -116 -258
-125 -2 -2 22 -52 52 -113 42 -83 52 -113 43 -120 -7 -5 -76 -42 -154 -81
-129 -64 -148 -71 -203 -71 l-60 0 0 192 0 193 279 280 279 280 161 314 c89
173 161 317 161 320 0 9 -258 136 -264 131 -2 -3 -40 -77 -84 -165 l-79 -160
-77 153 -76 152 0 205 0 205 -150 0 -150 0 0 -103 0 -103 -182 93 c-101 50
-188 92 -193 93 -10 0 -135 -241 -135 -260 0 -5 125 -72 278 -149 l277 -139
112 -224 111 -225 -224 -224 -224 -224 -141 71 -141 70 159 119 c87 65 177
134 200 153 l42 34 -89 118 -89 118 -178 -133 -178 -133 -3 197 -2 196 -300
150 -300 150 0 177 0 178 -150 0 -150 0 2 -272z"/>
<path d="M2395 889 c-175 -23 -378 -92 -520 -177 -44 -26 -138 -91 -210 -145
-136 -102 -275 -180 -385 -215 -146 -48 -209 -52 -761 -52 l-519 0 0 -150 0
-150 2560 0 2560 0 0 149 0 150 -557 3 -558 4 -100 27 c-146 40 -277 108 -450
235 -82 61 -183 130 -224 154 -243 139 -559 202 -836 167z"/>
</g>
</svg>
