<?xml version="1.0" standalone="no"?>
<!DOCTYPE svg PUBLIC "-//W3C//DTD SVG 20010904//EN"
 "http://www.w3.org/TR/2001/REC-SVG-20010904/DTD/svg10.dtd">
<svg version="1.0" xmlns="http://www.w3.org/2000/svg"
 width="512.000000pt" height="512.000000pt" viewBox="0 0 512.000000 512.000000"
 preserveAspectRatio="xMidYMid meet">

<g transform="translate(0.000000,512.000000) scale(0.100000,-0.100000)"
fill="currentColor" stroke="none">
<path d="M2405 5114 c-289 -13 -641 -55 -845 -100 -214 -48 -405 -121 -496
-191 -70 -53 -122 -180 -109 -266 4 -23 44 -121 90 -217 134 -280 214 -499
280 -760 37 -144 79 -369 93 -488 l9 -74 -46 7 c-60 9 -244 51 -301 68 -27 9
-39 16 -30 20 91 32 115 42 139 63 76 64 82 184 13 257 -61 65 -126 72 -261
31 -188 -57 -327 -153 -371 -257 -26 -60 -24 -151 5 -207 27 -53 110 -125 193
-168 314 -163 871 -248 1763 -270 l276 -7 36 -28 c46 -35 66 -65 78 -114 20
-92 -43 -190 -138 -212 -86 -21 -673 4 -1096 45 -92 9 -170 14 -173 11 -8 -7
38 -252 75 -400 l29 -119 -37 7 c-56 9 -180 52 -241 83 -42 21 -59 37 -74 67
-24 52 -43 73 -88 96 -121 62 -261 -29 -260 -167 2 -251 396 -437 1102 -520
183 -21 699 -30 911 -15 684 49 1151 212 1251 439 24 53 26 137 5 177 -48 93
-149 129 -242 86 -47 -21 -66 -42 -91 -96 -15 -30 -32 -46 -74 -67 -57 -29
-180 -72 -239 -84 l-35 -6 19 28 c10 16 79 112 153 214 452 619 564 844 711
1422 78 306 136 639 166 968 26 267 17 310 -86 411 -163 162 -554 268 -1169
319 -128 11 -752 20 -895 14z m880 -374 c428 -28 711 -86 747 -153 26 -49 -87
-101 -299 -137 -252 -44 -449 -54 -993 -54 -412 0 -552 3 -698 17 -386 37
-592 91 -592 157 0 73 291 140 735 169 180 12 918 12 1100 1z"/>
<path d="M1960 914 c47 -78 160 -221 245 -312 222 -236 539 -437 850 -541 170
-56 233 -68 284 -53 117 36 167 163 106 272 -128 228 -192 409 -213 601 l-7
64 -50 0 c-28 0 -117 -6 -200 -13 -256 -23 -816 -15 -999 14 l-39 6 23 -38z"/>
</g>
</svg>
