<?xml version="1.0" standalone="no"?>
<!DOCTYPE svg PUBLIC "-//W3C//DTD SVG 20010904//EN"
 "http://www.w3.org/TR/2001/REC-SVG-20010904/DTD/svg10.dtd">
<svg version="1.0" xmlns="http://www.w3.org/2000/svg"
 width="512.000000pt" height="512.000000pt" viewBox="0 0 512.000000 512.000000"
 preserveAspectRatio="xMidYMid meet">

<g transform="translate(0.000000,512.000000) scale(0.100000,-0.100000)"
fill="currentColor" stroke="none">
<path d="M2424 5106 c-205 -47 -376 -180 -464 -360 -79 -160 -74 -85 -78
-1183 l-3 -983 -119 0 -119 0 -3 653 c-4 595 -5 657 -22 707 -66 202 -215 349
-411 405 -84 25 -230 23 -315 -4 -189 -59 -345 -222 -395 -411 -12 -46 -15
-199 -15 -943 0 -1008 -3 -961 81 -1134 95 -193 259 -333 474 -404 67 -21 87
-23 457 -26 l387 -4 3 -652 c3 -631 4 -653 23 -686 11 -19 33 -43 48 -55 28
-21 34 -21 607 -21 573 0 579 0 607 21 15 12 37 36 48 55 19 33 20 55 23 530
l3 497 367 5 c335 4 374 6 447 26 260 69 462 257 551 513 l29 83 3 655 c3 471
0 670 -8 710 -22 103 -76 198 -159 280 -84 84 -161 129 -261 155 -81 21 -215
21 -294 0 -192 -51 -347 -204 -412 -405 -15 -48 -18 -108 -22 -457 l-4 -403
-118 0 -119 0 -3 1138 c-3 1040 -5 1142 -21 1197 -67 233 -241 416 -462 485
-90 28 -246 35 -331 16z"/>
</g>
</svg>
