<?xml version="1.0" standalone="no"?>
<!DOCTYPE svg PUBLIC "-//W3C//DTD SVG 20010904//EN"
 "http://www.w3.org/TR/2001/REC-SVG-20010904/DTD/svg10.dtd">
<svg version="1.0" xmlns="http://www.w3.org/2000/svg"
 width="512.000000pt" height="512.000000pt" viewBox="0 0 512.000000 512.000000"
 preserveAspectRatio="xMidYMid meet">

<g transform="translate(0.000000,512.000000) scale(0.100000,-0.100000)"
fill="currentColor" stroke="none">
<path d="M2377 5110 c-527 -67 -990 -374 -1246 -828 -60 -108 -93 -184 -140
-326 l-36 -109 -71 -27 c-336 -129 -591 -359 -745 -675 -103 -210 -145 -406
-136 -630 15 -357 147 -656 401 -910 163 -162 328 -266 532 -334 210 -70 110
-66 1624 -66 1278 0 1370 1 1449 18 291 63 503 177 706 381 163 164 266 328
334 531 52 158 66 243 66 425 0 120 -5 188 -18 250 -97 460 -398 822 -827 996
l-105 42 -45 134 c-196 573 -654 983 -1234 1103 -135 28 -387 41 -509 25z
m343 -1214 c108 -17 238 -60 355 -118 44 -22 82 -42 85 -45 2 -2 -58 -129
-134 -282 l-139 -277 36 -52 c19 -28 43 -71 52 -95 l16 -43 307 -18 c169 -10
310 -21 313 -24 9 -9 -6 -205 -21 -279 -41 -209 -145 -401 -300 -553 -72 -71
-259 -206 -277 -200 -4 2 -82 116 -173 254 l-166 251 -114 0 -114 0 -170 -257
-169 -257 -91 61 c-123 83 -198 149 -268 236 -103 130 -169 263 -209 421 -20
78 -42 311 -30 322 3 4 144 15 313 25 l307 17 16 44 c9 24 33 67 52 95 l36 52
-137 273 c-75 150 -136 277 -136 282 0 11 182 96 273 127 146 51 320 65 487
40z"/>
<path d="M2431 3599 c-30 -5 -56 -11 -58 -13 -2 -2 26 -65 64 -140 l68 -136
55 0 55 0 68 136 c38 75 67 138 65 140 -2 1 -33 8 -68 13 -76 13 -173 12 -249
0z"/>
<path d="M2488 2989 c-43 -22 -78 -81 -78 -129 0 -50 35 -107 80 -130 21 -11
53 -20 70 -20 76 0 150 74 150 150 0 50 -35 107 -80 130 -49 25 -94 25 -142
-1z"/>
<path d="M1913 2673 c-40 -2 -73 -8 -73 -13 0 -21 45 -128 78 -183 35 -60 98
-137 112 -137 4 0 44 56 89 124 l82 123 -28 47 -28 46 -80 -2 c-44 -1 -113 -4
-152 -5z"/>
<path d="M2947 2634 l-28 -47 82 -123 c45 -68 85 -124 90 -124 31 0 166 219
184 301 l6 26 -98 6 c-54 4 -123 7 -153 7 -55 0 -55 0 -83 -46z"/>
<path d="M655 886 c-83 -20 -146 -56 -211 -120 -177 -178 -177 -455 0 -631
179 -178 455 -178 631 -1 178 179 178 454 1 632 -114 114 -267 158 -421 120z"/>
</g>
</svg>
