<?xml version="1.0" standalone="no"?>
<!DOCTYPE svg PUBLIC "-//W3C//DTD SVG 20010904//EN"
 "http://www.w3.org/TR/2001/REC-SVG-20010904/DTD/svg10.dtd">
<svg version="1.0" xmlns="http://www.w3.org/2000/svg"
 width="500.000000pt" height="500.000000pt" viewBox="0 0 500.000000 500.000000"
 preserveAspectRatio="xMidYMid meet">
<metadata>
Created by potrace 1.14, written by Peter Selinger 2001-2017
</metadata>
<g transform="translate(0.000000,500.000000) scale(0.100000,-0.100000)"
fill="#000000" stroke="none">
<path d="M0 2500 l0 -2500 1200 0 1200 0 0 1150 0 1150 100 0 100 0 0 -1150 0
-1150 1200 0 1200 0 0 2500 0 2500 -700 0 -700 0 0 -50 0 -50 -50 0 -50 0 0
50 0 50 -200 0 -200 0 0 -50 0 -50 -50 0 -50 0 0 50 0 50 -1500 0 -1500 0 0
-2500z m3300 2250 l0 -50 -50 0 -50 0 0 50 0 50 50 0 50 0 0 -50z m200 -100
l0 -50 -50 0 -50 0 0 50 0 50 50 0 50 0 0 -50z m300 0 l0 -50 -50 0 -50 0 0
50 0 50 50 0 50 0 0 -50z m200 0 l0 -50 -50 0 -50 0 0 50 0 50 50 0 50 0 0
-50z m-2700 -100 l0 -50 -50 0 -50 0 0 50 0 50 50 0 50 0 0 -50z m1800 0 l0
-50 -50 0 -50 0 0 50 0 50 50 0 50 0 0 -50z m-1600 -100 l0 -50 -50 0 -50 0 0
50 0 50 50 0 50 0 0 -50z m1800 0 l0 -50 -50 0 -50 0 0 50 0 50 50 0 50 0 0
-50z m-300 -100 l0 -50 -50 0 -50 0 0 50 0 50 50 0 50 0 0 -50z m600 0 l0 -50
-50 0 -50 0 0 50 0 50 50 0 50 0 0 -50z m500 0 l0 -50 -50 0 -50 0 0 50 0 50
50 0 50 0 0 -50z m-2700 -100 l0 -50 -50 0 -50 0 0 50 0 50 50 0 50 0 0 -50z
m2000 0 l0 -50 -50 0 -50 0 0 50 0 50 50 0 50 0 0 -50z m400 0 l0 -50 -50 0
-50 0 0 50 0 50 50 0 50 0 0 -50z m-700 -100 l0 -50 -50 0 -50 0 0 50 0 50 50
0 50 0 0 -50z m500 0 l0 -50 -50 0 -50 0 0 50 0 50 50 0 50 0 0 -50z m-3300
-100 l0 -50 50 0 50 0 0 -50 0 -50 -50 0 -50 0 0 50 0 50 -50 0 -50 0 0 -50 0
-50 -50 0 -50 0 0 50 0 50 50 0 50 0 0 50 0 50 50 0 50 0 0 -50z m1100 0 l0
-50 -50 0 -50 0 0 50 0 50 50 0 50 0 0 -50z m1500 0 l0 -50 -50 0 -50 0 0 50
0 50 50 0 50 0 0 -50z m1200 0 l0 -50 -50 0 -50 0 0 50 0 50 50 0 50 0 0 -50z
m-2400 -100 l0 -50 -50 0 -50 0 0 50 0 50 50 0 50 0 0 -50z m1500 0 l0 -50
-50 0 -50 0 0 -50 0 -50 -50 0 -50 0 0 50 0 50 50 0 50 0 0 50 0 50 50 0 50 0
0 -50z m600 0 l0 -50 -50 0 -50 0 0 50 0 50 50 0 50 0 0 -50z m-1700 -100 l0
-50 -50 0 -50 0 0 50 0 50 50 0 50 0 0 -50z m1400 0 l0 -50 -50 0 -50 0 0 50
0 50 50 0 50 0 0 -50z m-3200 -100 l0 -50 -50 0 -50 0 0 50 0 50 50 0 50 0 0
-50z m2500 0 l0 -50 -50 0 -50 0 0 50 0 50 50 0 50 0 0 -50z m500 0 l0 -50
-50 0 -50 0 0 50 0 50 50 0 50 0 0 -50z m-2800 -100 l0 -50 50 0 50 0 0 -50 0
-50 -50 0 -50 0 0 50 0 50 -50 0 -50 0 0 50 0 50 50 0 50 0 0 -50z m1700 0 l0
-50 -50 0 -50 0 0 50 0 50 50 0 50 0 0 -50z m-1900 -100 l0 -50 -50 0 -50 0 0
-50 0 -50 -50 0 -50 0 0 50 0 50 50 0 50 0 0 50 0 50 50 0 50 0 0 -50z m900 0
l0 -50 50 0 50 0 0 50 0 50 50 0 50 0 0 -50 0 -50 -50 0 -50 0 0 -50 0 -50
-50 0 -50 0 0 50 0 50 -50 0 -50 0 0 50 0 50 50 0 50 0 0 -50z m1700 0 l0 -50
-50 0 -50 0 0 50 0 50 50 0 50 0 0 -50z m-1900 -100 l0 -50 50 0 50 0 0 -50 0
-50 50 0 50 0 0 -50 0 -50 50 0 50 0 0 -50 0 -50 50 0 50 0 0 -50 0 -50 -50 0
-50 0 0 50 0 50 -50 0 -50 0 0 50 0 50 -50 0 -50 0 0 -50 0 -50 -50 0 -50 0 0
50 0 50 50 0 50 0 0 50 0 50 -50 0 -50 0 0 50 0 50 -50 0 -50 0 0 50 0 50 50
0 50 0 0 -50z m2100 0 l0 -50 -50 0 -50 0 0 50 0 50 50 0 50 0 0 -50z m-2700
-100 l0 -50 50 0 50 0 0 -50 0 -50 -50 0 -50 0 0 50 0 50 -50 0 -50 0 0 -50 0
-50 -50 0 -50 0 0 50 0 50 50 0 50 0 0 50 0 50 50 0 50 0 0 -50z m300 0 l0
-50 -50 0 -50 0 0 50 0 50 50 0 50 0 0 -50z m800 0 l0 -50 50 0 50 0 0 -50 0
-50 -50 0 -50 0 0 50 0 50 -50 0 -50 0 0 50 0 50 50 0 50 0 0 -50z m1400 0 l0
-50 -50 0 -50 0 0 50 0 50 50 0 50 0 0 -50z m-2000 -100 l0 -50 -50 0 -50 0 0
-50 0 -50 -50 0 -50 0 0 50 0 50 50 0 50 0 0 50 0 50 50 0 50 0 0 -50z m900
-100 l0 -50 -50 0 -50 0 0 -50 0 -50 -50 0 -50 0 0 -50 0 -50 -50 0 -50 0 0
50 0 50 50 0 50 0 0 50 0 50 50 0 50 0 0 50 0 50 50 0 50 0 0 -50z m800 0 l0
-50 100 0 100 0 0 -100 0 -100 50 0 50 0 0 -100 0 -100 -50 0 -50 0 0 -100 0
-100 -100 0 -100 0 0 -50 0 -50 -100 0 -100 0 0 50 0 50 -100 0 -100 0 0 100
0 100 -50 0 -50 0 0 100 0 100 50 0 50 0 0 100 0 100 100 0 100 0 0 50 0 50
100 0 100 0 0 -50z m-2200 -100 l0 -50 50 0 50 0 0 50 0 50 50 0 50 0 0 -50 0
-50 -50 0 -50 0 0 -50 0 -50 50 0 50 0 0 -50 0 -50 -50 0 -50 0 0 50 0 50 -50
0 -50 0 0 50 0 50 -50 0 -50 0 0 50 0 50 50 0 50 0 0 -50z m1600 0 l0 -50 -50
0 -50 0 0 50 0 50 50 0 50 0 0 -50z m-1000 -100 l0 -50 -50 0 -50 0 0 50 0 50
50 0 50 0 0 -50z m-200 -100 l0 -50 -50 0 -50 0 0 50 0 50 50 0 50 0 0 -50z
m1100 0 l0 -50 -100 0 -100 0 0 50 0 50 100 0 100 0 0 -50z m100 -450 l0 -100
-100 0 -100 0 0 -100 0 -100 -50 0 -50 0 0 -100 0 -100 -50 0 -50 0 0 -50 0
-50 -50 0 -50 0 0 -50 0 -50 -50 0 -50 0 0 -100 0 -100 -100 0 -100 0 0 -50 0
-50 -200 0 -200 0 0 -50 0 -50 -150 0 -150 0 0 50 0 50 150 0 150 0 0 50 0 50
-100 0 -100 0 0 50 0 50 100 0 100 0 0 -50 0 -50 200 0 200 0 0 50 0 50 50 0
50 0 0 50 0 50 50 0 50 0 0 50 0 50 50 0 50 0 0 100 0 100 50 0 50 0 0 50 0
50 50 0 50 0 0 100 0 100 -50 0 -50 0 0 -50 0 -50 -50 0 -50 0 0 -50 0 -50
-100 0 -100 0 0 -100 0 -100 -50 0 -50 0 0 -50 0 -50 -100 0 -100 0 0 -50 0
-50 -150 0 -150 0 0 50 0 50 -150 0 -150 0 0 50 0 50 150 0 150 0 0 -50 0 -50
150 0 150 0 0 50 0 50 100 0 100 0 0 100 0 100 50 0 50 0 0 100 0 100 -50 0
-50 0 0 -50 0 -50 -50 0 -50 0 0 -50 0 -50 -150 0 -150 0 0 50 0 50 -150 0
-150 0 0 -50 0 -50 -50 0 -50 0 0 50 0 50 50 0 50 0 0 50 0 50 150 0 150 0 0
-50 0 -50 100 0 100 0 0 50 0 50 100 0 100 0 0 50 0 50 50 0 50 0 0 -50 0 -50
150 0 150 0 0 50 0 50 100 0 100 0 0 50 0 50 100 0 100 0 0 -100z m1100 50 l0
-50 -50 0 -50 0 0 50 0 50 50 0 50 0 0 -50z m200 0 l0 -50 -50 0 -50 0 0 50 0
50 50 0 50 0 0 -50z m200 0 l0 -50 -50 0 -50 0 0 50 0 50 50 0 50 0 0 -50z
m-400 -200 l0 -50 50 0 50 0 0 50 0 50 50 0 50 0 0 -50 0 -50 -50 0 -50 0 0
-50 0 -50 -50 0 -50 0 0 50 0 50 -50 0 -50 0 0 50 0 50 50 0 50 0 0 -50z m600
0 l0 -50 -50 0 -50 0 0 50 0 50 50 0 50 0 0 -50z m800 0 l0 -50 -50 0 -50 0 0
50 0 50 50 0 50 0 0 -50z m-600 -100 l0 -50 -50 0 -50 0 0 50 0 50 50 0 50 0
0 -50z m300 0 l0 -50 -50 0 -50 0 0 -50 0 -50 -50 0 -50 0 0 50 0 50 50 0 50
0 0 50 0 50 50 0 50 0 0 -50z m-800 -100 l0 -50 -50 0 -50 0 0 -50 0 -50 -50
0 -50 0 0 50 0 50 50 0 50 0 0 50 0 50 50 0 50 0 0 -50z m200 0 l0 -50 50 0
50 0 0 -50 0 -50 -50 0 -50 0 0 50 0 50 -50 0 -50 0 0 50 0 50 50 0 50 0 0
-50z m800 0 l0 -50 -50 0 -50 0 0 50 0 50 50 0 50 0 0 -50z m400 -100 l0 -50
-50 0 -50 0 0 50 0 50 50 0 50 0 0 -50z m-900 -100 l0 -50 -50 0 -50 0 0 -50
0 -50 -50 0 -50 0 0 50 0 50 50 0 50 0 0 50 0 50 50 0 50 0 0 -50z m300 0 l0
-50 -50 0 -50 0 0 50 0 50 50 0 50 0 0 -50z m200 0 l0 -50 -50 0 -50 0 0 50 0
50 50 0 50 0 0 -50z m200 0 l0 -50 -50 0 -50 0 0 50 0 50 50 0 50 0 0 -50z
m-1000 -100 l0 -50 -50 0 -50 0 0 50 0 50 50 0 50 0 0 -50z m500 -100 l0 -50
-50 0 -50 0 0 50 0 50 50 0 50 0 0 -50z m400 0 l0 -50 -50 0 -50 0 0 50 0 50
50 0 50 0 0 -50z m200 0 l0 -50 -50 0 -50 0 0 50 0 50 50 0 50 0 0 -50z m-400
-100 l0 -50 -50 0 -50 0 0 50 0 50 50 0 50 0 0 -50z m-400 -100 l0 -50 -50 0
-50 0 0 50 0 50 50 0 50 0 0 -50z m500 -100 l0 -50 -50 0 -50 0 0 50 0 50 50
0 50 0 0 -50z m200 0 l0 -50 -50 0 -50 0 0 50 0 50 50 0 50 0 0 -50z m-500
-100 l0 -50 -50 0 -50 0 0 50 0 50 50 0 50 0 0 -50z"/>
</g>
</svg>
