<?xml version="1.0" standalone="no"?>
<!DOCTYPE svg PUBLIC "-//W3C//DTD SVG 20010904//EN"
 "http://www.w3.org/TR/2001/REC-SVG-20010904/DTD/svg10.dtd">
<svg version="1.0" xmlns="http://www.w3.org/2000/svg"
 width="320.000000pt" height="320.000000pt" viewBox="0 0 320.000000 320.000000"
 preserveAspectRatio="xMidYMid meet">
<metadata>
Created by potrace 1.14, written by Peter Selinger 2001-2017
</metadata>
<g transform="translate(0.000000,320.000000) scale(0.100000,-0.100000)"
fill="#000000" stroke="none">
<path d="M1440 2440 l0 -40 -40 0 -40 0 0 -40 0 -40 -40 0 -40 0 0 -40 0 -40
-40 0 -40 0 0 -120 0 -120 120 0 120 0 0 -40 0 -40 -80 0 -80 0 0 -40 0 -40
-80 0 -80 0 0 -40 0 -40 -400 0 -400 0 0 -40 0 -40 -40 0 -40 0 0 -40 0 -40
-40 0 -40 0 0 -120 0 -120 40 0 40 0 0 -40 0 -40 120 0 120 0 0 -40 0 -40 160
0 160 0 0 -40 0 -40 400 0 400 0 0 -40 0 -40 560 0 560 0 0 40 0 40 80 0 80 0
0 40 0 40 40 0 40 0 0 40 0 40 40 0 40 0 0 40 0 40 40 0 40 0 0 80 0 80 -40 0
-40 0 0 40 0 40 -80 0 -80 0 0 40 0 40 -80 0 -80 0 0 40 0 40 -160 0 -160 0 0
40 0 40 -40 0 -40 0 0 120 0 120 -40 0 -40 0 0 80 0 80 -40 0 -40 0 0 40 0 40
-80 0 -80 0 0 40 0 40 -80 0 -80 0 0 40 0 40 -200 0 -200 0 0 -40z m400 -80
l0 -40 80 0 80 0 0 -40 0 -40 80 0 80 0 0 -80 0 -80 40 0 40 0 0 -200 0 -200
40 0 40 0 0 40 0 40 40 0 40 0 0 -40 0 -40 160 0 160 0 0 -40 0 -40 80 0 80 0
0 -40 0 -40 80 0 80 0 0 -80 0 -80 -40 0 -40 0 0 -40 0 -40 -40 0 -40 0 0 -40
0 -40 -80 0 -80 0 0 -40 0 -40 -520 0 -520 0 0 40 0 40 -120 0 -120 0 0 40 0
40 280 0 280 0 0 40 0 40 -80 0 -80 0 0 80 0 80 -40 0 -40 0 0 -80 0 -80 -160
0 -160 0 0 80 0 80 -40 0 -40 0 0 -80 0 -80 -80 0 -80 0 0 -40 0 -40 80 0 80
0 0 -40 0 -40 -280 0 -280 0 0 40 0 40 -160 0 -160 0 0 40 0 40 -120 0 -120 0
0 120 0 120 40 0 40 0 0 40 0 40 160 0 160 0 0 -40 0 -40 80 0 80 0 0 40 0 40
160 0 160 0 0 40 0 40 80 0 80 0 0 40 0 40 80 0 80 0 0 40 0 40 120 0 120 0 0
40 0 40 40 0 40 0 0 40 0 40 40 0 40 0 0 40 0 40 40 0 40 0 0 40 0 40 -80 0
-80 0 0 -40 0 -40 -120 0 -120 0 0 -40 0 -40 -120 0 -120 0 0 80 0 80 40 0 40
0 0 40 0 40 40 0 40 0 0 40 0 40 200 0 200 0 0 -40z"/>
<path d="M1520 1640 l0 -40 -40 0 -40 0 0 -40 0 -40 40 0 40 0 0 40 0 40 80 0
80 0 0 -40 0 -40 40 0 40 0 0 40 0 40 -40 0 -40 0 0 40 0 40 -80 0 -80 0 0
-40z"/>
<path d="M800 1560 l0 -40 40 0 40 0 0 -40 0 -40 80 0 80 0 0 -40 0 -40 80 0
80 0 0 40 0 40 -80 0 -80 0 0 40 0 40 -80 0 -80 0 0 40 0 40 -40 0 -40 0 0
-40z"/>
<path d="M2080 1400 l0 -40 80 0 80 0 0 40 0 40 -80 0 -80 0 0 -40z"/>
</g>
</svg>
